<svg width="1448" height="1447" viewBox="0 0 1448 1447" fill="none" xmlns="http://www.w3.org/2000/svg">
<g clip-path="url(#clip0_1555_4333)">
<path d="M1099.91 870.15C1100.19 870.083 1100.4 870.177 1100.55 870.43C1108.87 884.74 1119.74 896.95 1133.26 906.47C1148.77 917.39 1163.52 923.5 1182.82 923.28C1191.49 923.19 1195.34 912.62 1188.22 907.72C1186.87 906.8 1184.88 906.267 1182.23 906.12C1168.79 905.37 1159.46 902.97 1148.07 895.64C1132.4 885.56 1118.42 871.35 1111.99 853.56C1108.14 842.92 1103.8 834.42 1097.08 821.18C1093.96 815.033 1091.01 810.177 1088.22 806.61C1077.67 793.1 1064 783.31 1051.08 772.42C1024.15 749.707 997.29 726.907 970.51 704.02C957.94 693.27 935.7 678.08 947.52 658.77C953.09 649.67 959.77 647.66 970.09 649.6C972.337 650.02 974.976 651.103 978.01 652.85C1024.95 679.863 1071.89 706.873 1118.83 733.88C1120.76 734.993 1122.36 735.623 1123.63 735.77C1130.88 736.6 1135.87 728.44 1131.7 722.44C1130.85 721.233 1129.23 719.94 1126.83 718.56C1100.08 703.173 1073.25 687.747 1046.36 672.28C1045.96 672.047 1045.81 671.707 1045.91 671.26L1050.92 649.13C1050.96 648.944 1051.06 648.777 1051.21 648.655C1051.35 648.534 1051.53 648.465 1051.72 648.46C1068.74 647.9 1085.76 647.303 1102.77 646.67C1111.26 646.357 1117.39 646.617 1121.18 647.45C1138.08 651.18 1151.07 665.77 1160.39 679.61C1201.37 740.44 1241.44 801.93 1281.9 863.11C1283.6 865.69 1284.96 867.337 1285.97 868.05C1290.03 870.91 1296.29 869.09 1298.43 864.62C1300.11 861.13 1299.28 858.1 1297.22 854.99C1257.87 795.443 1218.52 735.89 1179.18 676.33C1163.32 652.32 1143.59 629.18 1112.04 629.11C1111.91 629.11 1111.79 629.073 1111.68 629.003C1111.57 628.934 1111.49 628.836 1111.44 628.72C1098.25 597.747 1080 570.113 1056.67 545.82C983.69 469.79 877 428.91 773.75 418.03C640.88 404.02 495.5 432.54 390.87 519.37C349.43 553.76 314.81 599.36 299.78 651.53C264.5 773.97 339.74 881.44 440.87 941.19C544.71 1002.54 671.92 1021.29 790.26 1005.05C889.67 991.41 988.13 950.82 1058.36 877.58C1058.6 877.327 1058.9 877.22 1059.25 877.26C1064.66 877.867 1068.25 877.943 1070.02 877.49C1080.03 874.937 1089.99 872.49 1099.91 870.15Z" stroke="#929292" stroke-width="2"/>
<path d="M1098.16 628.92C1048.17 515.01 922.53 451.75 806.18 431.79C709.01 415.12 607.53 423.43 515.33 458.93C404.93 501.42 296.68 595.38 304.25 725.29C307.28 777.31 330.38 825.53 364.38 864.38C430.32 939.74 530.56 981.67 627.73 995.64C725.59 1009.71 827.93 998.93 919.23 959.9C966.46 939.7 1010.03 911.47 1045.78 874.35C1045.84 874.289 1045.88 874.215 1045.91 874.134C1045.93 874.053 1045.94 873.967 1045.92 873.884C1045.9 873.801 1045.87 873.722 1045.82 873.656C1045.76 873.589 1045.7 873.536 1045.62 873.5C1028.36 865.567 1010.95 857.89 993.39 850.47C989.61 848.87 987.57 847.37 985.09 844.41C972.3 829.07 975.61 809.43 992.45 798.8C992.527 798.753 992.59 798.687 992.634 798.608C992.678 798.529 992.703 798.441 992.705 798.35C992.707 798.259 992.686 798.169 992.645 798.087C992.604 798.005 992.544 797.934 992.47 797.88C987.623 794.394 982.86 790.924 978.18 787.47C970.89 782.1 968.26 778.4 964.68 770.54C959.65 759.5 964.07 747.11 971.14 738.46C971.587 737.92 971.463 737.587 970.77 737.46C948.037 733.42 925.36 729.484 902.74 725.65C897.127 724.697 893.273 723.72 891.18 722.72C880.44 717.62 876.61 704.8 878.59 693.51C884.15 661.81 889.783 630.12 895.49 598.44C897.71 586.15 902.83 575.65 916.08 573.55C919.027 573.077 923.457 573.347 929.37 574.36C962.47 580.014 995.557 585.747 1028.63 591.56C1036.03 592.86 1041.14 594.28 1043.96 595.82C1056.72 602.79 1058.93 617.21 1055.15 630.32C1055.12 630.415 1055.12 630.514 1055.14 630.61C1055.16 630.706 1055.2 630.796 1055.26 630.874C1055.32 630.951 1055.4 631.012 1055.49 631.054C1055.57 631.095 1055.67 631.114 1055.77 631.11L1097.71 629.62C1097.79 629.619 1097.87 629.597 1097.95 629.557C1098.02 629.517 1098.08 629.46 1098.12 629.391C1098.17 629.322 1098.19 629.242 1098.2 629.16C1098.21 629.078 1098.19 628.996 1098.16 628.92Z" stroke="#929292" stroke-width="2"/>
<path d="M906.07 637.12C902.603 656.533 899.14 675.947 895.68 695.36C894.98 699.3 894.95 706.89 900.24 707.77C920.086 711.044 939.553 714.4 958.64 717.84C960.126 718.107 960.283 717.763 959.11 716.81C946.18 706.35 931.84 695.02 927.9 678.03C925.54 667.88 927.42 659.4 932.46 650.47C941.85 633.81 957.79 628.68 976.02 633.22C978.92 633.94 982.283 635.403 986.11 637.61C1000.51 645.89 1014.97 654.21 1029.49 662.57C1029.91 662.81 1030.17 662.697 1030.28 662.23C1033.03 650.21 1035.75 638.117 1038.46 625.95C1040.24 617.96 1040.85 611.1 1031.27 609.44C994.85 603.14 958.416 596.894 921.97 590.7C917.403 589.92 914.656 591.687 913.73 596C912.47 601.867 909.916 615.573 906.07 637.12Z" stroke="#929292" stroke-width="2"/>
<path d="M980.3 756.99C978.32 762.55 982.57 769.36 986.95 772.55C1004.8 785.557 1022.69 798.507 1040.62 811.4C1043.06 813.16 1050.34 818.17 1053.26 817.8C1059.47 816.993 1065.55 815.69 1071.5 813.89C1071.54 813.879 1071.58 813.858 1071.61 813.829C1071.64 813.799 1071.66 813.762 1071.67 813.722C1071.68 813.681 1071.68 813.638 1071.67 813.598C1071.66 813.557 1071.64 813.52 1071.61 813.49C1066.25 807.71 1061.1 802.94 1054.47 797.5C1036.88 783.073 1019.46 768.447 1002.19 753.62C999.53 751.333 997.216 749.877 995.25 749.25C992.9 748.5 985.84 747.62 984.08 749.83C982.593 751.71 981.333 754.097 980.3 756.99Z" stroke="#929292" stroke-width="2"/>
<path d="M1054.44 834.99C1046.57 835.93 1037.6 830.42 1031.34 825.9C1025.2 821.46 1019.04 817.04 1012.87 812.64C1006.89 808.37 1000.66 813.02 996.86 817.62C993 822.3 994.35 827.69 997.52 832.24C998.313 833.38 999.623 834.34 1001.45 835.12C1018.14 842.227 1034.73 849.547 1051.23 857.08C1056.77 859.6 1063.67 861.22 1069.91 859.67C1077.66 857.743 1085.31 855.893 1092.86 854.12C1093.61 853.947 1093.81 853.517 1093.47 852.83L1081.87 829.34C1081.8 829.199 1081.68 829.087 1081.54 829.027C1081.39 828.966 1081.23 828.96 1081.08 829.01C1072.37 831.917 1063.49 833.91 1054.44 834.99Z" stroke="#929292" stroke-width="2"/>
<path d="M809.01 567.82C802.89 553.527 795.617 539.853 787.19 526.8C777.24 511.4 753.38 515.58 749.86 533.51C748.813 538.817 749.447 543.397 751.76 547.25C761.44 563.377 769.017 578.37 774.49 592.23C807.43 675.62 807.52 772.23 769.43 854.18C765.117 863.453 760.173 872.37 754.6 880.93C750.78 886.8 748.46 891.38 749.54 897.76C752.74 916.53 776.39 921.89 787.21 906.19C795.557 894.083 803.17 880.114 810.05 864.28C850.69 770.77 849.04 661.24 809.01 567.82Z" stroke="#929292" stroke-width="2"/>
<path d="M699.63 635.31C720.15 697.29 717.66 766.43 688.85 825.27C686.61 829.843 683.854 834.67 680.58 839.75C677.794 844.083 676.127 847.3 675.58 849.4C671.33 865.61 688.25 879.3 703.42 873.24C710.89 870.25 715 862.76 719.45 854.97C762.18 780.27 764.16 685.71 732.92 606.81C726.767 591.283 720.12 578.11 712.98 567.29C705.34 555.71 688.09 554.6 679.47 565.74C673.37 573.61 673.95 582.99 679.37 591.3C688.07 604.63 694.63 620.22 699.63 635.31Z" stroke="#929292" stroke-width="2"/>
<path d="M607.27 635.96C631.28 680.59 634.27 736.19 614.43 782.95C611.916 788.87 608.96 794.55 605.56 799.99C602.52 804.85 600.753 808.18 600.26 809.98C599.133 814.093 599.38 818.183 601 822.25C607.23 837.88 627.68 840.29 637.27 826.29C643.63 817.01 648.93 807.153 653.17 796.72C676.87 738.39 672.99 672.23 643.54 616.69C638.36 606.91 633.71 598.43 622.01 597.21C614.27 596.4 606.74 600.49 602.69 607.03C598.07 614.51 599.07 622.82 603.85 630.32C605.463 632.847 606.603 634.727 607.27 635.96Z" stroke="#929292" stroke-width="2"/>
<path d="M525.95 779.98C528.33 799.25 551.73 805.64 563.64 790.65C597.05 748.58 598.14 690.01 566.26 646.91C560.2 638.74 553.86 633.84 543.76 635.4C528.3 637.8 520.72 655.29 529.87 668.1C532.12 671.26 534.63 674.5 536.41 677.56C549.91 700.74 551.23 727.53 539.03 751.82C537.143 755.587 535.626 758.22 534.48 759.72C529.25 766.56 524.96 771.92 525.95 779.98Z" stroke="#929292" stroke-width="2"/>
<path d="M1099.91 870.15C1089.99 872.49 1080.03 874.937 1070.02 877.49C1068.25 877.943 1064.66 877.867 1059.25 877.26C1058.9 877.22 1058.6 877.327 1058.36 877.58C988.13 950.82 889.67 991.41 790.26 1005.05C671.92 1021.29 544.71 1002.54 440.87 941.19C339.74 881.44 264.5 773.97 299.78 651.53C314.81 599.36 349.43 553.76 390.87 519.37C495.5 432.54 640.88 404.02 773.75 418.03C877 428.91 983.69 469.79 1056.67 545.82C1080 570.113 1098.25 597.747 1111.44 628.72C1111.49 628.836 1111.57 628.934 1111.68 629.003C1111.79 629.073 1111.91 629.11 1112.04 629.11C1143.59 629.18 1163.32 652.32 1179.18 676.33C1218.52 735.89 1257.87 795.443 1297.22 854.99C1299.28 858.1 1300.11 861.13 1298.43 864.62C1296.29 869.09 1290.03 870.91 1285.97 868.05C1284.96 867.337 1283.6 865.69 1281.9 863.11C1241.44 801.93 1201.37 740.44 1160.39 679.61C1151.07 665.77 1138.08 651.18 1121.18 647.45C1117.39 646.617 1111.26 646.357 1102.77 646.67C1085.76 647.303 1068.74 647.9 1051.72 648.46C1051.53 648.465 1051.35 648.534 1051.21 648.655C1051.06 648.777 1050.96 648.944 1050.92 649.13L1045.91 671.26C1045.81 671.707 1045.96 672.047 1046.36 672.28C1073.25 687.747 1100.08 703.173 1126.83 718.56C1129.23 719.94 1130.85 721.233 1131.7 722.44C1135.87 728.44 1130.88 736.6 1123.63 735.77C1122.36 735.623 1120.76 734.993 1118.83 733.88C1071.89 706.873 1024.95 679.863 978.01 652.85C974.976 651.103 972.337 650.02 970.09 649.6C959.77 647.66 953.09 649.67 947.52 658.77C935.7 678.08 957.94 693.27 970.51 704.02C997.29 726.907 1024.15 749.707 1051.08 772.42C1064 783.31 1077.67 793.1 1088.22 806.61C1091.01 810.177 1093.96 815.033 1097.08 821.18C1103.8 834.42 1108.14 842.92 1111.99 853.56C1118.42 871.35 1132.4 885.56 1148.07 895.64C1159.46 902.97 1168.79 905.37 1182.23 906.12C1184.88 906.267 1186.87 906.8 1188.22 907.72C1195.34 912.62 1191.49 923.19 1182.82 923.28C1163.52 923.5 1148.77 917.39 1133.26 906.47C1119.74 896.95 1108.87 884.74 1100.55 870.43C1100.4 870.177 1100.19 870.083 1099.91 870.15ZM1098.16 628.92C1048.17 515.01 922.53 451.75 806.18 431.79C709.01 415.12 607.53 423.43 515.33 458.93C404.93 501.42 296.68 595.38 304.25 725.29C307.28 777.31 330.38 825.53 364.38 864.38C430.32 939.74 530.56 981.67 627.73 995.64C725.59 1009.71 827.93 998.93 919.23 959.9C966.46 939.7 1010.03 911.47 1045.78 874.35C1045.84 874.289 1045.88 874.215 1045.91 874.134C1045.93 874.053 1045.94 873.967 1045.92 873.884C1045.9 873.8 1045.87 873.722 1045.82 873.655C1045.76 873.589 1045.7 873.535 1045.62 873.5C1028.36 865.567 1010.95 857.89 993.39 850.47C989.61 848.87 987.57 847.37 985.09 844.41C972.3 829.07 975.61 809.43 992.45 798.8C992.526 798.752 992.589 798.686 992.634 798.608C992.678 798.529 992.702 798.441 992.704 798.35C992.706 798.259 992.686 798.169 992.645 798.087C992.604 798.005 992.544 797.934 992.47 797.88C987.623 794.393 982.86 790.923 978.18 787.47C970.89 782.1 968.26 778.4 964.68 770.54C959.65 759.5 964.07 747.11 971.14 738.46C971.586 737.92 971.463 737.587 970.77 737.46C948.037 733.42 925.36 729.483 902.74 725.65C897.126 724.697 893.273 723.72 891.18 722.72C880.44 717.62 876.61 704.8 878.59 693.51C884.15 661.81 889.783 630.12 895.49 598.44C897.71 586.15 902.83 575.65 916.08 573.55C919.027 573.077 923.456 573.347 929.37 574.36C962.47 580.013 995.556 585.747 1028.63 591.56C1036.03 592.86 1041.14 594.28 1043.96 595.82C1056.72 602.79 1058.93 617.21 1055.15 630.32C1055.12 630.414 1055.12 630.514 1055.14 630.61C1055.16 630.706 1055.2 630.796 1055.26 630.873C1055.32 630.95 1055.4 631.012 1055.49 631.053C1055.57 631.094 1055.67 631.114 1055.77 631.11L1097.71 629.62C1097.79 629.619 1097.87 629.597 1097.94 629.557C1098.02 629.517 1098.08 629.46 1098.12 629.391C1098.17 629.321 1098.19 629.242 1098.2 629.16C1098.21 629.078 1098.19 628.996 1098.16 628.92ZM906.07 637.12C902.603 656.533 899.14 675.947 895.68 695.36C894.98 699.3 894.95 706.89 900.24 707.77C920.086 711.043 939.553 714.4 958.64 717.84C960.126 718.107 960.283 717.763 959.11 716.81C946.18 706.35 931.84 695.02 927.9 678.03C925.54 667.88 927.42 659.4 932.46 650.47C941.85 633.81 957.79 628.68 976.02 633.22C978.92 633.94 982.283 635.403 986.11 637.61C1000.51 645.89 1014.97 654.21 1029.49 662.57C1029.91 662.81 1030.17 662.697 1030.28 662.23C1033.03 650.21 1035.75 638.117 1038.46 625.95C1040.24 617.96 1040.85 611.1 1031.27 609.44C994.85 603.14 958.416 596.893 921.97 590.7C917.403 589.92 914.656 591.687 913.73 596C912.47 601.867 909.916 615.573 906.07 637.12ZM980.3 756.99C978.32 762.55 982.57 769.36 986.95 772.55C1004.8 785.557 1022.69 798.507 1040.62 811.4C1043.06 813.16 1050.34 818.17 1053.26 817.8C1059.47 816.993 1065.55 815.69 1071.5 813.89C1071.54 813.879 1071.58 813.858 1071.61 813.829C1071.64 813.799 1071.66 813.762 1071.67 813.722C1071.68 813.681 1071.68 813.639 1071.67 813.598C1071.66 813.557 1071.64 813.52 1071.61 813.49C1066.25 807.71 1061.1 802.94 1054.47 797.5C1036.88 783.073 1019.46 768.447 1002.19 753.62C999.53 751.333 997.216 749.877 995.25 749.25C992.9 748.5 985.84 747.62 984.08 749.83C982.593 751.71 981.333 754.097 980.3 756.99ZM1054.44 834.99C1046.57 835.93 1037.6 830.42 1031.34 825.9C1025.2 821.46 1019.04 817.04 1012.87 812.64C1006.89 808.37 1000.66 813.02 996.86 817.62C993 822.3 994.35 827.69 997.52 832.24C998.313 833.38 999.623 834.34 1001.45 835.12C1018.14 842.227 1034.73 849.547 1051.23 857.08C1056.77 859.6 1063.67 861.22 1069.91 859.67C1077.66 857.743 1085.31 855.893 1092.86 854.12C1093.61 853.947 1093.81 853.517 1093.47 852.83L1081.87 829.34C1081.8 829.199 1081.68 829.087 1081.54 829.027C1081.39 828.966 1081.23 828.96 1081.08 829.01C1072.37 831.917 1063.49 833.91 1054.44 834.99Z" fill="#252525"/>
<path d="M809.01 567.82C849.04 661.24 850.69 770.77 810.05 864.28C803.17 880.113 795.557 894.083 787.21 906.19C776.39 921.89 752.74 916.53 749.54 897.76C748.46 891.38 750.78 886.8 754.6 880.93C760.173 872.37 765.117 863.453 769.43 854.18C807.52 772.23 807.43 675.62 774.49 592.23C769.017 578.37 761.44 563.377 751.76 547.25C749.447 543.397 748.813 538.817 749.86 533.51C753.38 515.58 777.24 511.4 787.19 526.8C795.617 539.853 802.89 553.527 809.01 567.82Z" fill="#252525"/>
<path d="M688.85 825.27C717.66 766.43 720.15 697.29 699.63 635.31C694.63 620.22 688.07 604.63 679.37 591.3C673.95 582.99 673.37 573.61 679.47 565.74C688.09 554.6 705.34 555.71 712.98 567.29C720.12 578.11 726.767 591.283 732.92 606.81C764.16 685.71 762.18 780.27 719.45 854.97C715 862.76 710.89 870.25 703.42 873.24C688.25 879.3 671.33 865.61 675.58 849.4C676.127 847.3 677.794 844.083 680.58 839.75C683.854 834.67 686.61 829.843 688.85 825.27Z" fill="#252525"/>
<path d="M603.85 630.32C599.07 622.82 598.07 614.51 602.69 607.03C606.74 600.49 614.27 596.4 622.01 597.21C633.71 598.43 638.36 606.91 643.54 616.69C672.99 672.23 676.87 738.39 653.17 796.72C648.93 807.153 643.63 817.01 637.27 826.29C627.68 840.29 607.23 837.88 601 822.25C599.38 818.183 599.133 814.093 600.26 809.98C600.753 808.18 602.52 804.85 605.56 799.99C608.96 794.55 611.916 788.87 614.43 782.95C634.27 736.19 631.28 680.59 607.27 635.96C606.603 634.727 605.463 632.847 603.85 630.32Z" fill="#252525"/>
<path d="M525.95 779.98C524.96 771.92 529.25 766.56 534.48 759.72C535.626 758.22 537.143 755.587 539.03 751.82C551.23 727.53 549.91 700.74 536.41 677.56C534.63 674.5 532.12 671.26 529.87 668.1C520.72 655.29 528.3 637.8 543.76 635.4C553.86 633.84 560.2 638.74 566.26 646.91C598.14 690.01 597.05 748.58 563.64 790.65C551.73 805.64 528.33 799.25 525.95 779.98Z" fill="#252525"/>
</g>
<defs>
<clipPath id="clip0_1555_4333">
<rect width="1448" height="1447" fill="white"/>
</clipPath>
</defs>
</svg>
